<svg width="32" height="32" viewBox="0 0 32 32" fill="none" xmlns="http://www.w3.org/2000/svg">
<rect y="1.77783" width="32" height="28.4444" rx="4" fill="#FAFAFA"/>
<path d="M13.592 14.504C13.976 13.88 14.528 13.376 15.248 12.992C15.968 12.608 16.792 12.416 17.72 12.416C18.824 12.416 19.824 12.696 20.72 13.256C21.616 13.816 22.32 14.616 22.832 15.656C23.36 16.696 23.624 17.904 23.624 19.28C23.624 20.656 23.36 21.872 22.832 22.928C22.32 23.968 21.616 24.776 20.72 25.352C19.824 25.912 18.824 26.192 17.72 26.192C16.776 26.192 15.952 26.008 15.248 25.64C14.544 25.256 13.992 24.752 13.592 24.128V26H9.488V8.24H13.592V14.504ZM19.448 19.28C19.448 18.256 19.16 17.456 18.584 16.88C18.024 16.288 17.328 15.992 16.496 15.992C15.68 15.992 14.984 16.288 14.408 16.88C13.848 17.472 13.568 18.28 13.568 19.304C13.568 20.328 13.848 21.136 14.408 21.728C14.984 22.32 15.68 22.616 16.496 22.616C17.312 22.616 18.008 22.32 18.584 21.728C19.16 21.12 19.448 20.304 19.448 19.28Z" fill="#CB5774"/>
</svg>
